<svg width="111" height="101" viewBox="0 0 111 101" fill="none" xmlns="http://www.w3.org/2000/svg">
<g clip-path="url(#clip0_102_54)">
<path d="M55.4995 50.5005H1.64853V99.5H55.4995V50.5005Z" fill="#800080"/>
<path d="M66.6006 50.4997H55.5005V1.5002H109.351V50.4997H70.9971" fill="#800080"/>
<path d="M55.4995 1.5002H1.64853V50.4997H55.4995V1.5002Z" fill="#FFA317"/>
<path d="M70.9971 50.5005H109.351V99.5H55.5005V50.5005H66.6006" fill="#FFA317"/>
<path d="M42.7292 21.7972H33.1932V13.1202H23.9549V21.7972H14.419V30.2031H23.9549V38.8801H33.1932V30.2031H42.7292V21.7972Z" fill="#800080"/>
<path d="M95.7013 32.1355L88.9584 26L95.7013 19.8644L89.1692 13.9206L82.4261 20.0562L75.683 13.9206L69.1507 19.8644L75.8936 26L69.1507 32.1355L75.683 38.0795L82.4261 31.9439L89.1692 38.0795L95.7013 32.1355Z" fill="#FFA317"/>
<path d="M42.7294 63.3915H14.419V71.7973H42.7294V63.3915Z" fill="#FFA317"/>
<path d="M96.5814 70.7971H68.2711V79.203H96.5814V70.7971Z" fill="#800080"/>
<path d="M42.7294 78.2029H14.419V86.6088H42.7294V78.2029Z" fill="#FFA317"/>
<path d="M57.148 0.000228882H53.852H0V49.0005V51.9997V101H53.852H57.148H111V51.9997V49.0005V0.000228882H57.148ZM3.29704 3.00023H53.8509V48.9997H3.29704V3.00023ZM53.8509 98H3.29704V52.0005H53.8509V98ZM70.9971 51.9997L107.703 52.0005V98H57.1491V52.0005H66.6006V49.0005L57.1491 48.9997V3.00023H107.703V48.9997H70.9971V51.9997Z" fill="#214245"/>
<path d="M34.8418 11.6202H22.3066V20.2972H12.7705V31.7031H22.3066V40.3801H34.8418V31.7031H44.3779V20.2972H34.8418V11.6202ZM41.0806 23.2972V28.7031H31.5445V37.3801H25.6035V28.7031H16.0675V23.2972H25.6037V14.6202H31.5447V23.2972H41.0806V23.2972Z" fill="#214245"/>
<path d="M82.4261 34.0653L89.1692 40.2009L98.0328 32.1357L91.2897 26.0001L98.0328 19.8644L89.1692 11.7994L82.4261 17.935L75.683 11.7994L66.8193 19.8644L73.5624 26.0001L66.8193 32.1357L75.683 40.2009L82.4261 34.0653ZM78.225 26.0001L71.4819 19.8644L75.683 16.042L82.4261 22.1776L89.1692 16.042L93.3701 19.8644L86.627 26.0001L93.3701 32.1357L89.1692 35.9583L82.4261 29.8227L75.683 35.9583L71.4819 32.1357L78.225 26.0001Z" fill="#214245"/>
<path d="M44.3777 61.8915H12.7705V73.2973H44.3779V61.8915H44.3777ZM41.0806 70.2973H16.0675V64.8915H41.0808V70.2973H41.0806Z" fill="#214245"/>
<path d="M66.6226 80.703H98.2297V69.2971H66.6226V80.703ZM69.9196 72.2971H94.9327V77.703H69.9196V72.2971Z" fill="#214245"/>
<path d="M44.3777 76.7029H12.7705V88.1088H44.3779V76.7029H44.3777ZM41.0806 85.109H16.0675V79.7031H41.0808V85.109H41.0806Z" fill="#214245"/>
</g>
<defs>
<clipPath id="clip0_102_54">
<rect width="111" height="101" fill="white"/>
</clipPath>
</defs>
</svg>
