<svg width="97" height="79" viewBox="0 0 97 79" fill="none" xmlns="http://www.w3.org/2000/svg">
<path d="M25.2541 5.15506L14.7565 7.29053L6.55508 22.8822L12.862 26.3076L18.0644 17.8367L21.2945 18.5928L18.4395 41.7527H46.4539L48.1969 28.19L48.3674 26.9402H49.2199L48.1969 18.5928L51.4365 17.8367L56.6275 26.3076L62.9363 22.8822L54.733 7.29053L44.2373 5.15506C43.1953 5.75219 41.926 6.11324 40.543 6.38172C38.7621 6.72272 36.7539 6.88164 34.7457 6.88164C32.7375 6.88164 30.7293 6.72272 28.9484 6.38172C27.5654 6.11324 26.2961 5.75373 25.2541 5.15506V5.15506ZM51.4365 29.7176L51.1523 31.8777H85.0266L84.7424 29.7176H51.4365ZM50.7924 34.6551L45.734 73.8465H57.6127L66.4223 40.3795H69.7566L78.5662 73.8465H90.4449L85.3865 34.6551H50.7924Z" fill="#800080"/>
</svg>
