<svg width="107" height="105" viewBox="0 0 107 105" fill="none" xmlns="http://www.w3.org/2000/svg">
<path d="M102.381 82.1133C103.79 82.1133 104.931 80.9931 104.931 79.6113C104.931 78.2295 103.79 77.1094 102.381 77.1094C100.973 77.1094 99.8318 78.2295 99.8318 79.6113C99.8318 80.9931 100.973 82.1133 102.381 82.1133Z" fill="#800080"/>
<path d="M18.7522 11.7366H29.4104C29.7984 11.7366 30.1705 11.5854 30.4448 11.3162C30.7191 11.0469 30.8733 10.6818 30.8733 10.3011C30.8733 9.92035 30.7191 9.55521 30.4448 9.28599C30.1705 9.01678 29.7984 8.86553 29.4104 8.86553H18.7522C18.3642 8.86553 17.9921 9.01678 17.7178 9.28599C17.4434 9.55521 17.2893 9.92035 17.2893 10.3011C17.2893 10.6818 17.4434 11.0469 17.7178 11.3162C17.9921 11.5854 18.3642 11.7366 18.7522 11.7366V11.7366Z" fill="#800080"/>
<path d="M19.7868 97.9803C21.1767 97.7589 22.1205 96.4737 21.8949 95.1098C21.6693 93.7459 20.3596 92.8197 18.9697 93.0411C17.5798 93.2625 16.636 94.5476 16.8616 95.9116C17.0872 97.2755 18.3968 98.2017 19.7868 97.9803Z" fill="#800080"/>
<path d="M14.0554 11.8566C14.7957 10.6812 14.4249 9.13946 13.2271 8.41295C12.0293 7.68645 10.4582 8.05035 9.71784 9.22574C8.9775 10.4011 9.34833 11.9429 10.5461 12.6694C11.7439 13.3959 13.315 13.032 14.0554 11.8566Z" fill="#800080"/>
<path d="M43.8094 50.5948C43.366 50.5948 42.9407 50.7677 42.6272 51.0754C42.3137 51.383 42.1375 51.8003 42.1375 52.2355C42.1472 52.5666 42.0892 52.8964 41.9667 53.2052C41.8443 53.5139 41.6599 53.7955 41.4246 54.0331C41.1894 54.2707 40.9079 54.4596 40.5969 54.5886C40.2859 54.7176 39.9517 54.7841 39.614 54.7841C39.2764 54.7841 38.9422 54.7176 38.6312 54.5886C38.3202 54.4596 38.0387 54.2707 37.8034 54.0331C37.5681 53.7955 37.3838 53.5139 37.2614 53.2052C37.1389 52.8964 37.0808 52.5666 37.0906 52.2355C37.0906 51.8003 36.9144 51.383 36.6009 51.0754C36.2873 50.7677 35.8621 50.5948 35.4187 50.5948C34.9753 50.5948 34.55 50.7677 34.2365 51.0754C33.9229 51.383 33.7468 51.8003 33.7468 52.2355C33.7321 53.0007 33.873 53.7611 34.1612 54.4723C34.4495 55.1835 34.8793 55.8312 35.4256 56.3775C35.9719 56.9237 36.6236 57.3577 37.3428 57.6539C38.062 57.9501 38.8341 58.1027 39.614 58.1027C40.394 58.1027 41.1661 57.9501 41.8853 57.6539C42.6045 57.3577 43.2562 56.9237 43.8025 56.3775C44.3488 55.8312 44.7786 55.1835 45.0669 54.4723C45.3551 53.7611 45.496 53.0007 45.4813 52.2355C45.4813 51.8003 45.3051 51.383 44.9916 51.0754C44.6781 50.7677 44.2528 50.5948 43.8094 50.5948Z" fill="#800080"/>
<path d="M52.7853 60.457C50.3967 60.4597 48.1068 61.3921 46.4178 63.0495C44.7288 64.7069 43.7787 66.954 43.776 69.2979C43.776 69.7331 43.9521 70.1504 44.2656 70.458C44.5792 70.7657 45.0044 70.9386 45.4478 70.9386C45.8912 70.9386 46.3165 70.7657 46.63 70.458C46.9436 70.1504 47.1197 69.7331 47.1197 69.2979C47.1197 67.8234 47.7166 66.4093 48.7791 65.3667C49.8416 64.324 51.2827 63.7383 52.7853 63.7383C54.2879 63.7383 55.7289 64.324 56.7914 65.3667C57.8539 66.4093 58.4508 67.8234 58.4508 69.2979C58.4508 69.7331 58.627 70.1504 58.9405 70.458C59.2541 70.7657 59.6793 70.9386 60.1227 70.9386C60.5661 70.9386 60.9914 70.7657 61.3049 70.458C61.6184 70.1504 61.7946 69.7331 61.7946 69.2979C61.7918 66.954 60.8417 64.7069 59.1528 63.0495C57.4638 61.3921 55.1738 60.4597 52.7853 60.457V60.457Z" fill="#800080"/>
<path d="M70.1979 50.5948C69.7544 50.5948 69.3292 50.7677 69.0157 51.0754C68.7021 51.383 68.526 51.8003 68.526 52.2355C68.5357 52.5666 68.4776 52.8964 68.3552 53.2052C68.2327 53.5139 68.0484 53.7955 67.8131 54.0331C67.5778 54.2707 67.2963 54.4596 66.9853 54.5886C66.6743 54.7176 66.3401 54.7841 66.0025 54.7841C65.6649 54.7841 65.3307 54.7176 65.0197 54.5886C64.7087 54.4596 64.4272 54.2707 64.1919 54.0331C63.9566 53.7955 63.7723 53.5139 63.6498 53.2052C63.5274 52.8964 63.4693 52.5666 63.479 52.2355C63.479 51.8003 63.3029 51.383 62.9893 51.0754C62.6758 50.7677 62.2505 50.5948 61.8071 50.5948C61.3637 50.5948 60.9385 50.7677 60.6249 51.0754C60.3114 51.383 60.1353 51.8003 60.1353 52.2355C60.1205 53.0007 60.2614 53.7611 60.5497 54.4723C60.8379 55.1835 61.2677 55.8312 61.814 56.3775C62.3603 56.9237 63.0121 57.3577 63.7312 57.6539C64.4504 57.9501 65.2225 58.1027 66.0025 58.1027C66.7825 58.1027 67.5546 57.9501 68.2737 57.6539C68.9929 57.3577 69.6447 56.9237 70.191 56.3775C70.7373 55.8312 71.1671 55.1835 71.4553 54.4723C71.7436 53.7611 71.8845 53.0007 71.8697 52.2355C71.8697 51.8003 71.6936 51.383 71.3801 51.0754C71.0665 50.7677 70.6413 50.5948 70.1979 50.5948Z" fill="#800080"/>
<path d="M96.8392 52.6148C96.8644 46.5596 95.5668 40.5694 93.0336 35.0479H103.508C103.896 35.0479 104.268 34.8966 104.542 34.6274C104.817 34.3582 104.971 33.993 104.971 33.6123C104.971 33.2316 104.817 32.8664 104.542 32.5972C104.268 32.328 103.896 32.1768 103.508 32.1768H91.579C90.864 30.886 90.0821 29.632 89.2363 28.4197C88.5397 27.4354 87.8104 26.4858 87.0483 25.5712C88.7146 24.4153 90.0049 22.8114 90.7639 20.9526C91.5229 19.0937 91.7181 17.0593 91.3262 15.0941C90.9342 13.1289 89.9718 11.3168 88.5547 9.87587C87.1376 8.435 85.3262 7.4268 83.3388 6.97266L83.5729 4.44815C83.5854 4.29458 83.5854 4.14028 83.5729 3.98672C83.4944 3.32579 83.1559 2.7211 82.6295 2.30161C82.1032 1.88212 81.4307 1.68103 80.7554 1.74123C80.0801 1.80142 79.4555 2.11814 79.0148 2.62383C78.5741 3.12952 78.3521 3.78416 78.3963 4.44815L78.6283 6.9501C76.884 7.33569 75.267 8.14669 73.9267 9.3081C72.5865 10.4695 71.5663 11.9438 70.9606 13.5946C65.4947 11.2287 59.589 9.99846 53.6149 9.98115C52.8877 9.98115 52.1688 9.99346 51.4833 10.0263C43.553 10.3745 35.8729 12.8555 29.2826 17.1981C22.6923 21.5407 17.4456 27.5778 14.1159 34.6492C10.7863 41.7207 9.5019 49.5544 10.4032 57.2939C11.3046 65.0333 14.3569 72.3807 19.2266 78.5326H17.6341C16.2939 78.5342 15.009 79.0574 14.0613 79.9874C13.1136 80.9174 12.5804 82.1783 12.5788 83.4935C12.5788 84.0477 12.3544 84.5792 11.955 84.9711C11.5557 85.363 11.014 85.5832 10.4492 85.5832H3.22045C2.83247 85.5832 2.46038 85.7344 2.18603 86.0037C1.91169 86.2729 1.75756 86.638 1.75756 87.0188C1.75756 87.3995 1.91169 87.7646 2.18603 88.0338C2.46038 88.3031 2.83247 88.4543 3.22045 88.4543H10.4492C11.7893 88.4527 13.0739 87.9294 14.0213 86.9994C14.9687 86.0693 15.5014 84.8085 15.5025 83.4935C15.503 82.9394 15.7276 82.4082 16.1268 82.0164C16.5261 81.6246 17.0674 81.4043 17.632 81.4037H21.7135C25.7527 85.6912 30.6503 89.1144 36.0996 91.4593C41.5489 93.8042 47.4328 95.0201 53.383 95.0312H53.5C59.2885 95.0508 65.0214 93.9226 70.3546 91.7145C75.6879 89.5063 80.5116 86.2636 84.5363 82.181C84.9062 81.8098 85.2656 81.4304 85.6209 81.0469H94.7472C95.1352 81.0469 95.5073 80.8956 95.7817 80.6264C96.056 80.3572 96.2101 79.9921 96.2101 79.6113C96.2101 79.2306 96.056 78.8655 95.7817 78.5962C95.5073 78.327 95.1352 78.1758 94.7472 78.1758H88.0493C88.3642 77.7656 88.67 77.3555 88.9667 76.9453C94.0848 69.8258 96.8345 61.3276 96.8392 52.6148ZM78.8979 9.83145L79.3158 14.3063C79.3158 14.7414 79.492 15.1587 79.8055 15.4663C80.1191 15.774 80.5443 15.9469 80.9877 15.9469C81.4311 15.9469 81.8564 15.774 82.1699 15.4663C82.4834 15.1587 82.6596 14.7414 82.6596 14.3063L83.0776 9.85811C84.855 10.3645 86.3858 11.4847 87.3875 13.0119C88.3891 14.5392 88.794 16.3704 88.5275 18.1677C88.2609 19.965 87.3409 21.6071 85.9371 22.7908C84.5334 23.9745 82.7407 24.62 80.8899 24.6082C79.0391 24.5964 77.2552 23.9281 75.8672 22.7265C74.4793 21.525 73.5811 19.8714 73.3384 18.0709C73.0956 16.2703 73.5248 14.4444 74.5466 12.93C75.5684 11.4157 77.1139 10.3151 78.8979 9.83145V9.83145ZM52.7435 13.0922C52.7399 14.5456 52.2065 15.9497 51.2397 17.0508C50.273 18.1518 48.9366 18.877 47.4723 19.0953C46.008 19.3135 44.5125 19.0104 43.2562 18.2408C41.9998 17.4711 41.0656 16.2857 40.6224 14.8989C44.1744 13.728 47.8758 13.0501 51.6191 12.8851C51.9807 12.8666 52.3548 12.8563 52.7309 12.8502C52.7372 12.9302 52.7435 13.0122 52.7435 13.0922ZM24.4219 63.1148C24.4657 63.4378 24.4874 63.7632 24.4867 64.089C24.4791 65.8738 23.8188 67.5966 22.626 68.944C21.4332 70.2914 19.7872 71.1738 17.9873 71.4308C15.2426 66.4658 13.6083 60.9836 13.1935 55.3499C12.7788 49.7161 13.593 44.0603 15.5819 38.7598C17.7103 38.1742 19.9729 38.263 22.0469 39.0136C24.1208 39.7643 25.9003 41.1383 27.1316 42.9399C28.3628 44.7415 28.983 46.8785 28.9036 49.0464C28.8242 51.2142 28.0493 53.302 26.6894 55.0122V55.0122C25.7862 56.1496 25.1209 57.451 24.7317 58.8415C24.3426 60.232 24.2373 61.6843 24.4219 63.1148V63.1148ZM55.7215 92.1006C55.7215 91.9468 55.7215 91.8278 55.7215 91.7663C55.7226 90.152 56.3763 88.604 57.5392 87.4621C58.7021 86.3202 60.2791 85.6777 61.9242 85.6755C64.3588 85.6755 66.1185 86.988 67.1676 88.0913C67.5666 88.5131 67.9268 88.9688 68.2438 89.453C64.2407 90.9863 60.0129 91.8802 55.7215 92.1006V92.1006ZM76.9063 78.1758C76.5183 78.1758 76.1462 78.327 75.8718 78.5962C75.5975 78.8655 75.4434 79.2306 75.4434 79.6113C75.4434 79.9921 75.5975 80.3572 75.8718 80.6264C76.1462 80.8956 76.5183 81.0469 76.9063 81.0469H81.5478C78.3352 84.1012 74.6274 86.61 70.5761 88.4707C70.1261 87.7345 69.5979 87.0471 69.0004 86.4199C67.038 84.3589 64.526 83.2228 61.9242 83.2228C59.6143 83.226 57.4001 84.1282 55.7671 85.7313C54.1342 87.3345 53.2159 89.5078 53.2137 91.7745C53.2137 91.8422 53.2137 91.9796 53.2137 92.1642C43.0299 92.1108 33.2459 88.2682 25.8367 81.4119H35.6151C36.0031 81.4119 36.3752 81.2607 36.6495 80.9915C36.9239 80.7222 37.078 80.3571 37.078 79.9764C37.078 79.5956 36.9239 79.2305 36.6495 78.9613C36.3752 78.6921 36.0031 78.5408 35.6151 78.5408H23.0175C21.6648 77.0134 20.4324 75.3872 19.3311 73.6764C21.7373 73.0955 23.8407 71.6642 25.2389 69.6566C26.637 67.6489 27.2316 65.2059 26.9088 62.7949C26.7654 61.6869 26.8469 60.5619 27.1485 59.4849C27.4502 58.4078 27.966 57.4 28.6664 56.5195C30.1977 54.5943 31.134 52.2783 31.3639 49.8464C31.5939 47.4146 31.108 44.9691 29.9638 42.8002C28.8197 40.6313 27.0653 38.8301 24.9091 37.6104C22.7528 36.3908 20.2852 35.8039 17.7992 35.9194C17.4439 35.9358 17.0887 35.9687 16.7355 36.0117C18.692 31.8059 21.3872 27.9706 24.6978 24.6812C28.5605 20.8396 33.1755 17.8051 38.265 15.7603C38.9125 17.6907 40.2396 19.3316 42.0083 20.3889C43.777 21.4461 45.8716 21.8506 47.9167 21.5296C49.9617 21.2087 51.8233 20.1834 53.1678 18.6376C54.5123 17.0918 55.2517 15.1265 55.2534 13.0942C55.2534 13.0245 55.2534 12.9548 55.2534 12.8892C60.4814 13.1115 65.6153 14.3298 70.3692 16.476C70.3567 16.6811 70.3504 16.8861 70.3504 17.0912C70.3498 18.746 70.752 20.3771 71.5234 21.8486C72.2949 23.3201 73.4133 24.5895 74.7856 25.5513C76.158 26.513 77.7445 27.1392 79.4132 27.3777C81.082 27.6162 82.7846 27.4602 84.3795 26.9227C85.2406 27.9214 86.0514 28.9734 86.8246 30.0563C87.3137 30.7515 87.7776 31.4631 88.2186 32.185H85.5269C84.1872 32.1866 82.9028 32.7096 81.9555 33.6392C81.0082 34.5688 80.4753 35.8291 80.4736 37.1438C80.4731 37.6978 80.2485 38.229 79.8493 38.6208C79.45 39.0126 78.9087 39.233 78.3441 39.2335H71.1132C70.7252 39.2335 70.3531 39.3847 70.0788 39.654C69.8044 39.9232 69.6503 40.2883 69.6503 40.669C69.6503 41.0498 69.8044 41.4149 70.0788 41.6841C70.3531 41.9533 70.7252 42.1046 71.1132 42.1046H78.3441C79.6843 42.103 80.9692 41.5798 81.9169 40.6498C82.8646 39.7198 83.3977 38.4589 83.3994 37.1438C83.4005 36.5904 83.625 36.06 84.0237 35.6687C84.4225 35.2774 84.963 35.0571 85.5269 35.0561H89.8006C92.9791 41.4344 94.3564 48.5325 93.7888 55.6108C93.2213 62.6891 90.7298 69.4885 86.5739 75.3006C85.8661 76.2918 85.1075 77.2529 84.298 78.184L76.9063 78.1758Z" fill="#800080"/>
<path d="M80.9835 21.4758C81.3715 21.4758 81.7436 21.3245 82.018 21.0553C82.2923 20.7861 82.4464 20.421 82.4464 20.0402V19.2979C82.4464 18.9171 82.2923 18.552 82.018 18.2828C81.7436 18.0135 81.3715 17.8623 80.9835 17.8623C80.5956 17.8623 80.2235 18.0135 79.9491 18.2828C79.6748 18.552 79.5206 18.9171 79.5206 19.2979V20.0402C79.5206 20.421 79.6748 20.7861 79.9491 21.0553C80.2235 21.3245 80.5956 21.4758 80.9835 21.4758Z" fill="#800080"/>
</svg>
