<svg width="86" height="71" viewBox="0 0 86 71" fill="none" xmlns="http://www.w3.org/2000/svg">
<path d="M84.6277 40.8748C83.8698 40.8748 83.2553 41.3821 83.2553 42.0078V45.4068H2.74468V42.0078C2.74468 41.3821 2.13024 40.8748 1.37234 40.8748C0.614443 40.8748 0 41.3821 0 42.0078V69.6732C0 70.2989 0.614443 70.8062 1.37234 70.8062H84.6277C85.3856 70.8062 86 70.2989 86 69.6732V42.0078C86 41.3821 85.3856 40.8748 84.6277 40.8748ZM83.2553 49.9387H12.3511C11.5932 49.9387 10.9787 50.4459 10.9787 51.0717C10.9787 51.6974 11.5932 52.2046 12.3511 52.2046H83.2553V68.5402H2.74468V52.2046H6.8617C7.6196 52.2046 8.23404 51.6974 8.23404 51.0717C8.23404 50.4459 7.6196 49.9387 6.8617 49.9387H2.74468V47.6727H83.2553V49.9387Z" fill="#FFA500"/>
<path d="M34.6342 42.8857C34.8891 43.0574 35.196 43.141 35.5012 43.141C35.8992 43.141 36.2938 42.9988 36.565 42.7245L51.7804 27.3364C52.2596 26.8517 52.1724 26.138 51.5852 25.7422C50.9982 25.3465 50.1336 25.4186 49.6542 25.9034L34.4388 41.2915C33.9598 41.7761 34.047 42.4899 34.6342 42.8857Z" fill="#FFA500"/>
<path d="M41.3922 41.2915C40.9129 41.7761 41.0002 42.4899 41.5874 42.8857C41.8423 43.0574 42.1491 43.141 42.4544 43.141C42.8523 43.141 43.247 42.9988 43.5182 42.7245C43.5182 42.7245 58.5201 27.5521 58.7309 27.3391C58.7316 27.3382 58.7325 27.3374 58.7334 27.3365C58.818 27.251 58.9087 27.1682 59.0028 27.0904C60.5316 25.8284 63.0192 25.8284 64.5479 27.0904L68.3318 30.2143C69.8605 31.4764 69.8605 33.5301 68.3318 34.7924C68.2375 34.8702 68.1373 34.945 68.0341 35.0146L58.9594 41.1303C58.3722 41.5261 58.2848 42.2397 58.7642 42.7245C59.0355 42.9988 59.4302 43.141 59.828 43.141C60.133 43.141 60.4402 43.0574 60.695 42.8857L69.7698 36.7698C69.9443 36.6522 70.1134 36.5259 70.2724 36.3946C72.5293 34.5312 72.8252 31.6536 71.1623 29.5233C74.8787 26.7966 79.6139 25.3053 84.6275 25.3053C85.3854 25.3053 85.9998 24.798 85.9998 24.1723C85.9998 23.5466 85.3854 23.0393 84.6275 23.0393C79.0737 23.0393 73.8202 24.6509 69.6492 27.6049L81.221 18.0517C81.7569 17.6092 81.7569 16.8919 81.221 16.4495C80.685 16.007 79.8161 16.007 79.2803 16.4495L67.7094 26.0022C71.2872 22.5587 73.2389 18.2219 73.2389 13.6371C73.2389 13.0114 72.6244 12.5042 71.8665 12.5042C71.1086 12.5042 70.4942 13.0114 70.4942 13.6371C70.4942 17.7761 68.6878 21.6855 65.3851 24.7538C62.8047 23.3807 59.319 23.625 57.0621 25.4882C56.9031 25.6195 56.7501 25.7591 56.6076 25.9032L56.6111 25.9055C56.5498 25.962 56.4925 26.0198 56.4367 26.0762L41.3922 41.2915Z" fill="#FFA500"/>
<path d="M6.85751 43.1408C7.61541 43.1408 8.22985 42.6335 8.22985 42.0078V14.5526H27.7116V42.0078C27.7116 42.6335 28.326 43.1408 29.0839 43.1408C29.8418 43.1408 30.4563 42.6335 30.4563 42.0078V13.7823L35.6185 7.80925L39.4881 12.2865H35.8273C35.0694 12.2865 34.4549 12.7937 34.4549 13.4195C34.4549 14.0452 35.0694 14.5524 35.8273 14.5524H40.7807V28.1148C40.7807 28.7405 41.3951 29.2478 42.153 29.2478C42.9109 29.2478 43.5254 28.7405 43.5254 28.1148V13.4196C43.5254 13.1836 43.4361 12.9536 43.2701 12.7616L36.9908 5.49601V1.3268C36.9908 0.701089 36.3764 0.193817 35.6185 0.193817H13.392C12.6341 0.193817 12.0197 0.701089 12.0197 1.3268V5.49586L5.74024 12.7616C5.57428 12.9536 5.48499 13.1836 5.48499 13.4196V42.0078C5.48517 42.6335 6.09943 43.1408 6.85751 43.1408ZM14.7644 2.45977H34.2461V4.72573H14.7644V2.45977ZM14.0987 6.99169H32.9534L28.3771 12.2866H9.52241L14.0987 6.99169Z" fill="#FFA500"/>
<path d="M79.1383 43.141C79.8962 43.141 80.5106 42.6337 80.5106 42.008V40.1254C80.5106 37.7694 78.707 35.634 76.0225 34.8116C75.3117 34.5941 74.5221 34.893 74.2584 35.4796C73.9948 36.0663 74.3571 36.7183 75.0676 36.936C76.6814 37.4304 77.7659 38.7121 77.7659 40.1254V42.008C77.7659 42.6337 78.3804 43.141 79.1383 43.141Z" fill="#FFA500"/>
</svg>
