<svg width="97" height="99" viewBox="0 0 97 99" fill="none" xmlns="http://www.w3.org/2000/svg">
<g clip-path="url(#clip0_101_12)">
<path d="M92.4002 66.0504C91.7119 64.1273 90.2471 62.6386 88.3811 61.966C86.5165 61.2935 84.4766 61.5035 82.7861 62.5411L66.4095 72.5698L64.1569 73.5549H52.3401C52.1953 73.5549 52.1145 73.4724 52.0723 73.4031C52.03 73.3338 51.9929 73.2233 52.057 73.0909C52.0935 73.0152 52.1564 72.9579 52.2341 72.9297L61.2012 69.6593C64.6712 68.4692 66.6596 64.8459 65.7294 61.4025C65.2413 59.5953 64.0825 58.1165 62.4668 57.2383C60.8761 56.3736 58.984 56.2124 57.2783 56.7955L48.0254 59.9428L23.7293 61.5963C22.1342 61.7049 20.6333 62.4 19.503 63.5536L6.28676 77.0421C3.75136 79.6298 3.51651 83.7344 5.7519 86.3864C6.3427 87.0875 8.88921 89.5779 12.7063 93.2976C14.9308 95.4651 17.0317 97.5122 18.0292 98.5302C18.3346 98.842 18.7369 99 19.1408 99C19.4965 99 19.8537 98.8771 20.1464 98.6284L27.4055 92.4543C28.9273 91.1598 30.8564 90.4471 32.8373 90.4471H57.6891C58.5887 90.4471 59.4642 90.2639 60.2911 89.9021L72.0206 84.7714C72.0533 84.7571 72.0855 84.7417 72.1169 84.7252L72.7123 84.4145C72.744 84.3981 72.7752 84.3805 72.8054 84.3617L89.4158 74.19C92.2187 72.4734 93.4737 69.0503 92.4002 66.0504V66.0504ZM87.7991 71.4396L71.2343 81.5833L70.7336 81.8446L59.0532 86.9539C58.6197 87.1435 58.1605 87.2396 57.6889 87.2396H32.8375C30.1227 87.2396 27.4792 88.2163 25.3938 89.9902L19.2269 95.2352C18.0998 94.1182 16.5218 92.5806 14.8766 90.9776C12.1107 88.2826 8.6686 84.9288 8.13416 84.2946C6.98441 82.9306 7.15243 80.6944 8.50896 79.3099L21.7252 65.8212C22.3169 65.2171 23.1029 64.8532 23.9382 64.7963L48.4354 63.1291C48.569 63.1202 48.7008 63.0937 48.8276 63.0505L58.2736 59.8374C58.6348 59.714 59.0048 59.6528 59.3729 59.6528C59.9293 59.6528 60.4809 59.7927 60.9894 60.0689C61.8358 60.5291 62.4431 61.3052 62.6996 62.2548C63.1789 64.0291 62.0531 65.9884 60.1899 66.6222C60.1793 66.6258 60.1686 66.6296 60.1583 66.6335L51.1765 69.9092C50.3253 70.2197 49.6367 70.8466 49.2373 71.6746C48.7065 72.7762 48.7689 74.0559 49.4045 75.0981C50.0402 76.1402 51.1375 76.7623 52.3403 76.7623H64.4795C64.6924 76.7623 64.9029 76.7182 65.0984 76.6327L67.7455 75.475C67.8108 75.4466 67.8741 75.4135 67.9348 75.3763L84.4043 65.2907C85.2892 64.7471 86.3566 64.6381 87.3344 64.9903C88.3268 65.3482 89.0777 66.1154 89.4483 67.1509C89.9972 68.684 89.288 70.5278 87.7991 71.4396V71.4396Z" fill="#FFA500"/>
<path d="M61.0998 51.1036C74.9046 51.1036 86.1354 39.6412 86.1354 25.5518C86.1354 11.4624 74.9046 0 61.0998 0C47.2951 0 36.0642 11.4624 36.0642 25.5518C36.0642 39.6412 47.2951 51.1036 61.0998 51.1036ZM61.0998 3.20734C73.1716 3.20734 82.9929 13.2309 82.9929 25.5518C82.9929 37.8727 73.1716 47.8962 61.0998 47.8962C49.0281 47.8962 39.2068 37.8727 39.2068 25.5518C39.2068 13.2309 49.0281 3.20734 61.0998 3.20734Z" fill="#FFA500"/>
<path d="M52.615 31.5388C52.615 30.6532 51.9117 29.9352 51.0437 29.9352C50.1757 29.9352 49.4724 30.6532 49.4724 31.5388C49.4724 34.6395 52.1842 37.2492 56.1765 38.4387V39.2364C56.1765 40.1221 56.8798 40.8401 57.7478 40.8401C58.6157 40.8401 59.319 40.1221 59.319 39.2364V39.0446C59.8985 39.1004 60.4929 39.1295 61.0998 39.1295C61.7067 39.1295 62.3011 39.1004 62.8806 39.0446V39.2364C62.8806 40.1221 63.5839 40.8401 64.4519 40.8401C65.3198 40.8401 66.0231 40.1221 66.0231 39.2364V38.4387C70.0154 37.2492 72.7272 34.6397 72.7272 31.5388C72.7272 28.438 70.0154 25.8285 66.0231 24.639V16.0382C68.2397 16.8984 69.5847 18.2769 69.5847 19.5648C69.5847 20.4504 70.288 21.1684 71.1559 21.1684C72.0239 21.1684 72.7272 20.4504 72.7272 19.5648C72.7272 16.4641 70.0154 13.8544 66.0231 12.6649V11.8672C66.0231 10.9815 65.3198 10.2635 64.4519 10.2635C63.5839 10.2635 62.8806 10.9815 62.8806 11.8672V12.059C62.3011 12.0031 61.7067 11.9741 61.0998 11.9741C60.4929 11.9741 59.8985 12.0031 59.319 12.059V11.8672C59.319 10.9815 58.6157 10.2635 57.7478 10.2635C56.8798 10.2635 56.1765 10.9815 56.1765 11.8672V12.6649C52.1842 13.8544 49.4724 16.4639 49.4724 19.5648C49.4724 22.6656 52.1842 25.2751 56.1765 26.4646V35.0654C53.96 34.2052 52.615 32.8265 52.615 31.5388ZM66.0231 28.0122C68.2397 28.8725 69.5847 30.251 69.5847 31.5388C69.5847 32.8267 68.2397 34.2052 66.0231 35.0654V28.0122ZM59.319 15.2828C59.887 15.2169 60.4818 15.1814 61.0998 15.1814C61.7178 15.1814 62.3126 15.2169 62.8806 15.2828V24.033C62.3011 23.9772 61.7067 23.9481 61.0998 23.9481C60.4818 23.9481 59.887 23.9126 59.319 23.8468V15.2828V15.2828ZM59.319 27.0706C59.8985 27.1264 60.4929 27.1555 61.0998 27.1555C61.7178 27.1555 62.3126 27.191 62.8806 27.2568V35.8208C62.3126 35.8867 61.7178 35.9222 61.0998 35.9222C60.4818 35.9222 59.887 35.8867 59.319 35.8208V27.0706ZM52.615 19.5648C52.615 18.2771 53.96 16.8984 56.1765 16.0382V23.0911C53.96 22.2311 52.615 20.8524 52.615 19.5648Z" fill="#FFA500"/>
</g>
<defs>
<clipPath id="clip0_101_12">
<rect width="97" height="99" fill="white"/>
</clipPath>
</defs>
</svg>
